<mxfile host="app.diagrams.net" modified="2023-07-04T08:16:31.767Z" agent="Mozilla/5.0 (Windows NT 10.0; Win64; x64) AppleWebKit/537.36 (KHTML, like Gecko) Chrome/114.0.0.0 Safari/537.36" etag="J0VsL4jbAkGADXqv39XX" version="21.5.2" type="github">
  <diagram name="第 1 页" id="BK7UexbAD5S3coaDiWZC">
    <mxGraphModel dx="1050" dy="549" grid="1" gridSize="10" guides="1" tooltips="1" connect="1" arrows="1" fold="1" page="1" pageScale="1" pageWidth="827" pageHeight="1169" math="0" shadow="0">
      <root>
        <mxCell id="0" />
        <mxCell id="1" parent="0" />
        <mxCell id="pPquGkvTpnL6xaR8iwFb-2" value="&lt;h1&gt;降低工程的耦合性&lt;/h1&gt;&lt;div&gt;1、优化界面类型的选择&lt;/div&gt;&lt;div&gt;2、修改公共文件，将公共文件再次细分&lt;/div&gt;&lt;div&gt;3、自动流程内容众多，非常繁琐，需要注意封装&lt;/div&gt;" style="text;html=1;strokeColor=none;fillColor=none;spacing=5;spacingTop=-20;whiteSpace=wrap;overflow=hidden;rounded=0;" vertex="1" parent="1">
          <mxGeometry x="199" y="20" width="391" height="140" as="geometry" />
        </mxCell>
      </root>
    </mxGraphModel>
  </diagram>
</mxfile>
